<svg aria-hidden="true" style="position: absolute; width: 0; height: 0; overflow: hidden;" version="1.1" xmlns="http://www.w3.org/2000/svg" xmlns:xlink="http://www.w3.org/1999/xlink">
<defs>
<symbol id="icon-tablet" viewBox="0 0 25 32">
<path d="M1.5 32h22c0.827 0 1.5-0.673 1.5-1.5v-29c0-0.827-0.673-1.5-1.5-1.5h-22c-0.827 0-1.5 0.673-1.5 1.5v29c0 0.827 0.673 1.5 1.5 1.5zM1 1.5c0-0.276 0.224-0.5 0.5-0.5h22c0.276 0 0.5 0.224 0.5 0.5v29c0 0.276-0.224 0.5-0.5 0.5h-22c-0.276 0-0.5-0.224-0.5-0.5v-29zM3.5 27h18c0.276 0 0.5-0.224 0.5-0.5v-23c0-0.276-0.224-0.5-0.5-0.5h-18c-0.276 0-0.5 0.224-0.5 0.5v23c0 0.276 0.224 0.5 0.5 0.5zM4 4h17v22h-17v-22zM12 29c0 0.552 0.448 1 1 1s1-0.448 1-1c0-0.552-0.448-1-1-1s-1 0.448-1 1z"></path>
</symbol>
<symbol id="icon-hourglass" viewBox="0 0 21 32">
<path d="M21.021 0.5c0-0.276-0.224-0.5-0.5-0.5h-20.042c-0.276 0-0.5 0.224-0.5 0.5s0.223 0.5 0.5 0.5h20.043c0.276 0 0.499-0.224 0.499-0.5zM20 6.112v-3.612c0-0.276-0.224-0.5-0.5-0.5h-17.918c-0.276 0-0.5 0.224-0.5 0.5v3.612c0 4.976 3.808 8.35 6.014 9.886-2.529 1.742-6.096 5.057-6.096 9.89v3.612c0 0.276 0.224 0.5 0.5 0.5h18c0.276 0 0.5-0.224 0.5-0.5v-3.583c0-4.962-3.863-8.365-6.095-9.916 2.529-1.742 6.095-5.056 6.095-9.889zM10.5 24.19l4.81 4.81h-9.62l4.81-4.81zM12.732 15.578c-0.145 0.091-0.232 0.251-0.232 0.422s0.087 0.331 0.232 0.422c1.885 1.195 6.268 4.513 6.268 9.495v3.083h-2.288c-0.009-0.011-0.013-0.025-0.023-0.035l-5.689-5.689v-0.776c0-0.276-0.224-0.5-0.5-0.5s-0.5 0.224-0.5 0.5v0.776l-5.689 5.689c-0.010 0.010-0.014 0.024-0.023 0.035h-2.288v-3.112c0-4.777 3.927-7.981 6.268-9.465 0.145-0.092 0.232-0.252 0.232-0.423s-0.087-0.331-0.232-0.422c-1.86-1.18-6.268-4.463-6.268-9.466v-3.112h17v3.112c0 4.778-3.927 7.981-6.268 9.466zM15.541 8.972h-9.814c-0.179 0-0.345 0.096-0.434 0.251-0.089 0.156-0.088 0.347 0.002 0.502 1.187 2.021 2.92 3.258 4.755 4.569l0.159 0.113c0.087 0.062 0.188 0.093 0.291 0.093s0.204-0.031 0.291-0.093c0.262-0.187 0.526-0.371 0.79-0.555 1.639-1.144 3.334-2.326 4.391-4.127 0.091-0.154 0.092-0.346 0.003-0.501-0.090-0.156-0.255-0.252-0.434-0.252zM11.008 13.031c-0.169 0.118-0.338 0.236-0.507 0.355-1.505-1.075-2.835-2.042-3.846-3.415h7.943c-0.941 1.212-2.234 2.114-3.59 3.060zM0.479 32h20.043c0.276 0 0.5-0.224 0.5-0.5s-0.224-0.5-0.5-0.5h-20.043c-0.276 0-0.5 0.224-0.5 0.5s0.223 0.5 0.5 0.5zM10.5 19c-0.276 0-0.5 0.224-0.5 0.5v1c0 0.276 0.224 0.5 0.5 0.5s0.5-0.224 0.5-0.5v-1c0-0.276-0.224-0.5-0.5-0.5zM10.5 16c-0.276 0-0.5 0.224-0.5 0.5v1c0 0.276 0.224 0.5 0.5 0.5s0.5-0.224 0.5-0.5v-1c0-0.276-0.224-0.5-0.5-0.5z"></path>
</symbol>
<symbol id="icon-trophy" viewBox="0 0 34 32">
<path d="M25.5 1c0.276 0 0.5-0.224 0.5-0.5s-0.224-0.5-0.5-0.5h-17c-0.276 0-0.5 0.224-0.5 0.5s0.224 0.5 0.5 0.5h17zM25.5 2h-19c-3.283 0-4.813 1.166-5.519 2.144-0.864 1.2-1.026 2.803-0.456 4.514 0.882 2.646 3.846 5.825 5.668 7.237 0.092 0.071 0.2 0.105 0.307 0.105 0.149 0 0.297-0.066 0.396-0.194 0.169-0.218 0.129-0.532-0.089-0.702-1.674-1.296-4.525-4.342-5.332-6.763-0.467-1.397-0.354-2.68 0.318-3.612 0.815-1.131 2.442-1.729 4.707-1.729h1.5v9.5c0 6.726 6.673 10.601 8.036 11.322-0.021 0.056-0.036 0.115-0.036 0.178v2.5c0 0.276 0.224 0.5 0.5 0.5s0.5-0.224 0.5-0.5v-2.5c0-0.058-0.015-0.112-0.033-0.164 1.514-0.712 9.033-4.586 9.033-11.336v-9.5h1.5c2.265 0 3.892 0.598 4.707 1.729 0.672 0.932 0.785 2.215 0.318 3.613-0.63 1.891-3.769 5.553-5.332 6.763-0.218 0.169-0.258 0.483-0.089 0.702 0.099 0.127 0.247 0.193 0.396 0.193 0.107 0 0.215-0.034 0.307-0.104 1.732-1.342 4.961-5.119 5.668-7.237 0.57-1.711 0.408-3.314-0.456-4.514-0.706-0.979-2.236-2.145-5.519-2.145h-2zM25 12.5c0 6.093-7.152 9.804-8.486 10.443-1.228-0.665-7.514-4.367-7.514-10.443v-9.5h16v9.5zM11 28c-1.141 0-2 0.86-2 2v1.5c0 0.276 0.224 0.5 0.5 0.5h14c0.276 0 0.5-0.224 0.5-0.5v-1.425c0-1.163-0.879-2.075-2-2.075h-11zM23 30.075v0.925h-13v-1c0-0.589 0.411-1 1-1h11c0.57 0 1 0.462 1 1.075z"></path>
</symbol>
<symbol id="icon-gears" viewBox="0 0 42 32">
<path d="M3.692 21.72c0.176 0.042 0.415 0.259 0.484 0.457l0.35 0.844c0.079 0.162 0.064 0.483-0.030 0.637l-1.397 2.284c-0.299 0.49-0.237 1.184 0.165 1.634l1.183 1.182c0.412 0.366 1.139 0.432 1.613 0.145l2.284-1.397c0.143-0.088 0.45-0.119 0.665-0.018l0.843 0.348c0.17 0.059 0.387 0.297 0.429 0.473l0.627 2.604c0.133 0.552 0.66 1.006 1.226 1.058 0 0 0.347 0.032 0.867 0.032s0.867-0.032 0.868-0.032c0.565-0.051 1.092-0.506 1.225-1.058l0.628-2.604c0.042-0.175 0.258-0.414 0.456-0.483l0.844-0.35c0.149-0.073 0.494-0.058 0.637 0.030l2.284 1.397c0.201 0.123 0.441 0.188 0.696 0.188 0.345 0 0.679-0.121 0.938-0.352l1.182-1.183c0.382-0.429 0.444-1.123 0.145-1.613l-1.397-2.284c-0.094-0.154-0.109-0.475-0.018-0.665l0.348-0.843c0.059-0.17 0.297-0.387 0.473-0.429l2.604-0.627c0.552-0.133 1.006-0.66 1.058-1.226 0 0 0.032-0.347 0.032-0.867s-0.032-0.867-0.032-0.868c-0.051-0.565-0.506-1.092-1.058-1.226l-2.603-0.626c-0.176-0.042-0.415-0.259-0.484-0.457l-0.35-0.844c-0.079-0.162-0.064-0.483 0.030-0.637l1.397-2.284c0.299-0.49 0.237-1.184-0.165-1.634l-1.183-1.182c-0.413-0.367-1.141-0.433-1.613-0.145l-2.284 1.397c-0.143 0.087-0.451 0.12-0.665 0.018l-0.843-0.348c-0.17-0.059-0.386-0.297-0.428-0.473l-0.628-2.604c-0.133-0.552-0.66-1.006-1.226-1.058-0.002 0.001-0.349-0.031-0.869-0.031s-0.867 0.032-0.868 0.032c-0.565 0.051-1.092 0.506-1.226 1.058l-0.626 2.602c-0.042 0.176-0.259 0.415-0.457 0.484l-0.844 0.35c-0.15 0.073-0.494 0.057-0.637-0.030l-2.283-1.397c-0.473-0.288-1.185-0.238-1.634 0.164l-1.182 1.183c-0.382 0.429-0.444 1.123-0.145 1.613l1.397 2.284c0.094 0.154 0.109 0.475 0.018 0.665l-0.348 0.843c-0.059 0.17-0.297 0.387-0.473 0.429l-2.604 0.627c-0.552 0.133-1.006 0.66-1.058 1.226 0.002 0-0.030 0.347-0.030 0.867s0.032 0.867 0.032 0.868c0.051 0.565 0.506 1.092 1.058 1.226l2.602 0.626zM1 19c0-0.458 0.027-0.767 0.028-0.777 0.012-0.135 0.165-0.312 0.296-0.344l2.604-0.627c0.505-0.122 1.014-0.584 1.172-1.047l0.324-0.787c0.228-0.467 0.196-1.153-0.075-1.597l-1.397-2.283c-0.067-0.111-0.048-0.331 0.018-0.406l1.141-1.142c0.091-0.081 0.323-0.101 0.427-0.038l2.284 1.397c0.433 0.265 1.175 0.283 1.568 0.088l0.788-0.326c0.491-0.169 0.953-0.678 1.075-1.184l0.626-2.603c0.032-0.132 0.209-0.285 0.344-0.297 0.010 0 0.319-0.027 0.777-0.027s0.767 0.027 0.777 0.028c0.135 0.012 0.312 0.165 0.344 0.296l0.627 2.603c0.122 0.505 0.583 1.015 1.047 1.173l0.787 0.324c0.457 0.224 1.165 0.189 1.597-0.075l2.283-1.397c0.104-0.063 0.35-0.030 0.406 0.018l1.142 1.141c0.086 0.097 0.105 0.316 0.038 0.427l-1.397 2.284c-0.271 0.443-0.303 1.13-0.088 1.568l0.326 0.788c0.169 0.491 0.678 0.953 1.184 1.075l2.603 0.626c0.132 0.032 0.285 0.209 0.297 0.344 0 0.010 0.027 0.319 0.027 0.777s-0.027 0.767-0.028 0.777c-0.012 0.135-0.165 0.312-0.296 0.344l-2.604 0.627c-0.505 0.122-1.014 0.584-1.172 1.047l-0.324 0.787c-0.228 0.467-0.196 1.153 0.075 1.597l1.397 2.283c0.067 0.111 0.048 0.331-0.018 0.406l-1.141 1.142c-0.054 0.048-0.152 0.079-0.251 0.079-0.069 0-0.133-0.015-0.175-0.041l-2.284-1.397c-0.432-0.264-1.174-0.283-1.568-0.088l-0.788 0.326c-0.491 0.169-0.953 0.679-1.074 1.184l-0.627 2.603c-0.032 0.132-0.209 0.285-0.344 0.297-0.011 0-0.32 0.027-0.778 0.027s-0.767-0.027-0.777-0.028c-0.135-0.012-0.312-0.165-0.344-0.296l-0.627-2.604c-0.122-0.505-0.584-1.014-1.047-1.172l-0.787-0.324c-0.204-0.1-0.451-0.152-0.715-0.152-0.329 0-0.642 0.081-0.882 0.228l-2.283 1.397c-0.104 0.063-0.351 0.029-0.406-0.018l-1.142-1.142c-0.086-0.097-0.105-0.316-0.038-0.427l1.397-2.284c0.271-0.443 0.303-1.13 0.088-1.568l-0.326-0.788c-0.169-0.491-0.678-0.953-1.184-1.075l-2.603-0.626c-0.132-0.032-0.285-0.209-0.297-0.344 0-0.010-0.027-0.319-0.027-0.777zM13 24.5c3.033 0 5.5-2.467 5.5-5.5s-2.467-5.5-5.5-5.5-5.5 2.467-5.5 5.5 2.467 5.5 5.5 5.5zM13 14.5c2.481 0 4.5 2.019 4.5 4.5s-2.019 4.5-4.5 4.5-4.5-2.019-4.5-4.5 2.019-4.5 4.5-4.5zM27.477 5.314c-0.040 0.061-0.185 0.138-0.259 0.138l-1.861-0.018c-0.452 0-0.905 0.321-1.053 0.746 0 0-0.082 0.233-0.172 0.59s-0.128 0.601-0.128 0.601c-0.070 0.451 0.181 0.95 0.584 1.161l1.641 0.86c0.063 0.033 0.156 0.172 0.166 0.273l0.093 0.635c0.015 0.070-0.033 0.23-0.084 0.28l-1.322 1.296c-0.331 0.324-0.418 0.878-0.19 1.313l0.599 1c0.253 0.372 0.801 0.562 1.231 0.428l1.824-0.558c0.099 0 0.198 0.038 0.254 0.083l0.515 0.38c0.060 0.040 0.139 0.187 0.138 0.259l-0.018 1.852c-0.004 0.456 0.316 0.913 0.746 1.063 0 0 0.233 0.082 0.59 0.172s0.601 0.128 0.601 0.128c0.026 0.004 0.13 0.012 0.156 0.012 0.408 0 0.822-0.245 1.005-0.596l0.86-1.641c0.033-0.063 0.172-0.156 0.273-0.166l0.663-0.096c0.1 0 0.218 0.052 0.251 0.086l1.296 1.322c0.315 0.322 0.846 0.437 1.313 0.19l0.999-0.599c0.382-0.26 0.567-0.79 0.429-1.231l-0.552-1.767c-0.021-0.068 0.012-0.232 0.078-0.311l0.38-0.515c0.040-0.061 0.185-0.138 0.259-0.138l1.861 0.018c0.452 0 0.905-0.321 1.053-0.746 0 0 0.082-0.233 0.172-0.59s0.128-0.601 0.128-0.601c0.070-0.451-0.181-0.95-0.584-1.161l-1.641-0.86c-0.063-0.033-0.156-0.172-0.166-0.273l-0.092-0.633c-0.015-0.070 0.033-0.23 0.084-0.28l1.322-1.296c0.331-0.324 0.418-0.878 0.19-1.313l-0.599-1c-0.253-0.371-0.8-0.563-1.231-0.429l-1.825 0.558c-0.099 0-0.198-0.038-0.254-0.083l-0.515-0.38c-0.060-0.040-0.139-0.187-0.138-0.259l0.018-1.852c0.004-0.456-0.316-0.913-0.746-1.063 0 0-0.233-0.082-0.59-0.172s-0.601-0.128-0.601-0.128c-0.026-0.003-0.13-0.011-0.156-0.011-0.408 0-0.822 0.245-1.005 0.596l-0.86 1.641c-0.033 0.063-0.172 0.156-0.273 0.166l-0.663 0.095c-0.1 0-0.218-0.052-0.251-0.086l-1.296-1.322c-0.314-0.321-0.844-0.437-1.313-0.19l-1 0.598c-0.382 0.26-0.567 0.79-0.429 1.231l0.552 1.767c0.021 0.068-0.012 0.232-0.078 0.311l-0.379 0.515zM28.297 5.886l0.343-0.466c0.268-0.317 0.372-0.834 0.248-1.229l-0.551-1.766c-0.005-0.028 0.017-0.091 0.012-0.092l0.948-0.568 0.113 0.017 1.297 1.322c0.23 0.234 0.609 0.386 0.965 0.386 0.082 0 0.161-0.008 0.204-0.019l0.575-0.085c0.412-0.036 0.851-0.328 1.043-0.694l0.859-1.64c0.016-0.025 0.079-0.061 0.12-0.061 0.011 0.001 0.215 0.035 0.513 0.109s0.493 0.142 0.502 0.146c0.031 0.013 0.076 0.078 0.078 0.11l-0.018 1.852c-0.004 0.414 0.245 0.879 0.567 1.089l0.465 0.343c0.309 0.261 0.839 0.371 1.229 0.248l1.774-0.552c0.042 0 0.089 0.026 0.083 0.013l0.568 0.948c0.011 0.026 0 0.092-0.017 0.113l-1.322 1.297c-0.295 0.291-0.448 0.795-0.367 1.169l0.084 0.575c0.036 0.412 0.328 0.851 0.695 1.043l1.64 0.859c0.028 0.018 0.063 0.088 0.061 0.12-0.001 0.011-0.035 0.215-0.109 0.513s-0.142 0.493-0.146 0.502c-0.013 0.031-0.078 0.076-0.11 0.078l-1.862-0.018c-0.411 0-0.871 0.249-1.079 0.567l-0.342 0.465c-0.268 0.317-0.372 0.834-0.248 1.229l0.551 1.766c0.005 0.027-0.017 0.091-0.012 0.092l-0.948 0.568-0.113-0.017-1.297-1.322c-0.23-0.234-0.609-0.386-0.965-0.386-0.082 0-0.161 0.008-0.204 0.019l-0.575 0.085c-0.412 0.036-0.851 0.328-1.043 0.694l-0.859 1.64c-0.016 0.025-0.079 0.061-0.12 0.061v0c-0.011-0.001-0.215-0.035-0.513-0.109-0.297-0.075-0.493-0.142-0.502-0.146-0.031-0.013-0.076-0.078-0.078-0.11l0.018-1.852c0.004-0.414-0.245-0.879-0.567-1.089l-0.465-0.343c-0.222-0.188-0.549-0.3-0.875-0.3-0.126 0-0.246 0.018-0.355 0.052l-1.774 0.552c-0.043 0-0.090-0.023-0.083-0.013l-0.568-0.948c-0.011-0.026 0-0.092 0.017-0.113l1.322-1.297c0.295-0.291 0.448-0.795 0.367-1.169l-0.084-0.574c-0.036-0.412-0.328-0.851-0.695-1.043l-1.64-0.859c-0.028-0.018-0.063-0.088-0.061-0.12 0.001-0.011 0.035-0.215 0.109-0.513 0.075-0.297 0.142-0.493 0.146-0.502 0.013-0.031 0.078-0.076 0.11-0.078l1.862 0.018c0.411 0 0.871-0.249 1.079-0.567zM33 12c1.654 0 3-1.346 3-3s-1.346-3-3-3-3 1.346-3 3 1.346 3 3 3zM33 7c1.103 0 2 0.897 2 2s-0.897 2-2 2-2-0.897-2-2 0.897-2 2-2z"></path>
</symbol>
<symbol id="icon-paintbrush" viewBox="0 0 22 32">
<path d="M15.403 21h4.58c1.053 0 1.909-0.856 2.017-1.909v-17.182c-0.108-1.053-0.964-1.909-2.017-1.909h-17.966c-1.053 0-1.909 0.856-2.017 1.909v17.182c0.108 1.053 0.964 1.909 2.017 1.909h4.962c0.348 0 2.083 0.074 2.083 1.542 0 2.622-0.553 3.842-0.762 4.302l-0.049 0.109 0.403 0.174v0.013l-0.447-0.090c-0.017 0.033-0.030 0.068-0.038 0.104-0.154 0.411-0.232 0.833-0.232 1.257 0.001 2.147 1.231 3.589 3.063 3.589 1.851 0 3.094-1.442 3.094-3.589 0-0.391-0.066-0.78-0.198-1.161-0.005-0.114-0.049-0.22-0.119-0.302-0.026-0.060-0.060-0.125-0.101-0.202-0.219-0.415-0.676-1.277-0.676-4.204 0-0.62 0.64-1.542 2.403-1.542zM1 12.059h20v3.941h-20v-3.941zM2.017 1h17.966c0.501 0 0.909 0.408 1.017 0.909v9.149h-20v-9.149c0.108-0.501 0.516-0.909 1.017-0.909zM12.792 27.214c0.028 0.053 0.052 0.097 0.093 0.189 0 0.001 0.003 0.007 0.007 0.016 0.004 0.013 0.008 0.025 0.013 0.038 0.125 0.313 0.188 0.635 0.188 0.954 0.001 1.252-0.549 2.589-2.093 2.589-1.521 0-2.062-1.337-2.062-2.589 0-0.319 0.063-0.641 0.188-0.954 0.004-0.012 0.009-0.023 0.012-0.035 0.014-0.030 0.031-0.068 0.033-0.072l0.042-0.093c0.232-0.514 0.851-1.876 0.851-4.715-0.002-2.007-1.939-2.542-3.114-2.542 0 0 0 0-0.001 0h-4.932c-0.501 0-0.909-0.408-1.017-0.909v-2.091h20v2.091c-0.108 0.501-0.516 0.909-1.017 0.909h-4.58c-2.497 0-3.403 1.521-3.403 2.542 0 3.175 0.535 4.187 0.792 4.672z"></path>
</symbol>
<symbol id="icon-recycle" viewBox="0 0 32 32">
<path d="M12.148 2.666l-3.063 4.555c-0.154 0.229-0.093 0.54 0.136 0.694s0.54 0.093 0.694-0.136l3.081-4.583c0.82-1.417 1.888-2.196 3.004-2.196s2.184 0.779 3.003 2.194l5.514 9.6-3.92-0.784c-0.273-0.057-0.535 0.121-0.588 0.393s0.122 0.534 0.392 0.588l5 1c0.034 0.006 0.067 0.009 0.099 0.009 0.079 0 0.153-0.025 0.221-0.059 0.009-0.004 0.019-0.002 0.028-0.007 0.010-0.006 0.016-0.016 0.026-0.023 0.033-0.022 0.062-0.048 0.089-0.078 0.016-0.017 0.032-0.032 0.045-0.051 0.021-0.031 0.035-0.065 0.049-0.1 0.009-0.023 0.021-0.044 0.026-0.068 0.001-0.006 0.005-0.010 0.006-0.016l1-5c0.054-0.271-0.122-0.534-0.392-0.588-0.273-0.057-0.535 0.121-0.588 0.393l-0.739 3.695-5.401-9.404c-1.008-1.737-2.382-2.694-3.87-2.694s-2.862 0.957-3.852 2.666zM10 28.519c0-0.276-0.224-0.5-0.5-0.5h-4.499c-1.547-0.003-2.784-0.609-3.392-1.664-0.648-1.123-0.539-2.604 0.3-4.063l5.512-9.644 1.615 4.039c0.078 0.194 0.266 0.313 0.464 0.313 0.062 0 0.125-0.012 0.186-0.036 0.256-0.103 0.381-0.394 0.279-0.649l-2-5c-0.010-0.026-0.028-0.045-0.042-0.068-0.013-0.021-0.022-0.042-0.038-0.062-0.035-0.042-0.075-0.075-0.119-0.103-0.007-0.005-0.011-0.012-0.018-0.016-0.001-0.001-0.002 0-0.003-0.001-0.056-0.032-0.117-0.051-0.182-0.059-0.011-0.001-0.021 0.002-0.032 0.001-0.043-0.003-0.085-0.006-0.129 0.004l-5 1c-0.271 0.054-0.446 0.317-0.392 0.588s0.313 0.447 0.588 0.393l3.922-0.784-5.48 9.588c-1.021 1.775-1.129 3.62-0.298 5.061 0.792 1.371 2.343 2.16 4.257 2.164h4.5c0.277-0.002 0.501-0.226 0.501-0.502zM31.264 26.846c0.823-1.426 0.712-3.258-0.281-4.98l-2.025-4.568c-0.112-0.252-0.407-0.368-0.66-0.254-0.252 0.112-0.366 0.407-0.254 0.66l2.049 4.614c0.834 1.452 0.946 2.92 0.306 4.028-0.605 1.049-1.844 1.651-3.399 1.654l-10.31 0.017 2.163-2.163c0.195-0.195 0.195-0.512 0-0.707s-0.512-0.195-0.707 0l-3 3c-0.1 0.1-0.147 0.232-0.145 0.363 0 0.003-0.002 0.006-0.002 0.010 0 0.162 0.083 0.3 0.204 0.391l2.943 2.943c0.098 0.097 0.226 0.146 0.354 0.146s0.256-0.049 0.354-0.146c0.195-0.195 0.195-0.512 0-0.707l-2.13-2.13 10.277-0.017c1.92-0.004 3.474-0.789 4.263-2.154z"></path>
</symbol>
</defs>
</svg>
